<?xml version="1.0" encoding="iso-8859-1"?>
<!-- Generator: Adobe Illustrator 19.0.0, SVG Export Plug-In . SVG Version: 6.00 Build 0)  -->
<svg version="1.1" id="Layer_1" xmlns="http://www.w3.org/2000/svg" xmlns:xlink="http://www.w3.org/1999/xlink" x="0px" y="0px"
	 viewBox="0 0 511.448 511.448" style="enable-background:new 0 0 511.448 511.448;" xml:space="preserve">
<path style="fill:#FFFFFF;" d="M406.507,43.633v424.181c0,14.924-12.14,27.064-27.064,27.064H132.004
	c-14.924,0-27.064-12.14-27.064-27.064V43.633c0-14.924,12.14-27.064,27.064-27.064h247.439
	C394.367,16.57,406.507,28.71,406.507,43.633z M385.298,120.185c3.237-3.237,3.237-8.473,0-11.709l-26.511-26.511
	c-3.237-3.237-8.473-3.237-11.709,0c-3.237,3.237-3.237,8.473,0,11.709l20.646,20.657l-20.646,20.657
	c-3.237,3.237-3.237,8.473,0,11.709c1.613,1.624,3.734,2.43,5.855,2.43c2.121,0,4.242-0.806,5.855-2.43L385.298,120.185z
	 M385.298,226.23c3.237-3.237,3.237-8.473,0-11.709l-26.511-26.511c-3.237-3.237-8.473-3.237-11.709,0
	c-3.237,3.237-3.237,8.473,0,11.709l20.646,20.657l-20.646,20.657c-3.237,3.237-3.237,8.473,0,11.709
	c1.613,1.624,3.734,2.43,5.855,2.43c2.121,0,4.242-0.806,5.855-2.43L385.298,226.23z M385.298,332.275
	c3.237-3.237,3.237-8.473,0-11.709l-26.511-26.511c-3.237-3.237-8.473-3.237-11.709,0c-3.237,3.237-3.237,8.473,0,11.709
	l20.646,20.657l-20.646,20.657c-3.237,3.237-3.237,8.473,0,11.709c1.613,1.624,3.734,2.43,5.855,2.43
	c2.121,0,4.242-0.806,5.855-2.43L385.298,332.275z M385.298,438.321c3.237-3.237,3.237-8.473,0-11.709L358.787,400.1
	c-3.237-3.237-8.473-3.237-11.709,0c-3.237,3.237-3.237,8.473,0,11.709l20.646,20.657l-20.646,20.657
	c-3.237,3.237-3.237,8.473,0,11.709c1.613,1.624,3.734,2.43,5.855,2.43c2.121,0,4.242-0.806,5.855-2.43L385.298,438.321z
	 M387.728,43.633c0-4.573-3.712-8.285-8.285-8.285h-35.348c-4.573,0-8.285,3.712-8.285,8.285s3.712,8.285,8.285,8.285h35.348
	C384.017,51.918,387.728,48.206,387.728,43.633z M325.868,450.14v-35.348c0-14.316-11.643-25.959-25.959-25.959H149.679
	c-14.316,0-25.959,11.643-25.959,25.959v35.348c0,14.316,11.643,25.959,25.959,25.959h150.231
	C314.225,476.099,325.868,464.456,325.868,450.14z M325.868,344.095v-35.348c0-14.316-11.643-25.959-25.959-25.959H149.679
	c-14.316,0-25.959,11.643-25.959,25.959v35.348c0,14.316,11.643,25.959,25.959,25.959h150.231
	C314.225,370.054,325.868,358.411,325.868,344.095z M325.868,238.05v-35.348c0-14.316-11.643-25.959-25.959-25.959H149.679
	c-14.316,0-25.959,11.643-25.959,25.959v35.348c0,14.316,11.643,25.959,25.959,25.959h150.231
	C314.225,264.009,325.868,252.366,325.868,238.05z M325.868,132.004V96.656c0-14.316-11.643-25.959-25.959-25.959H149.679
	c-14.316,0-25.959,11.643-25.959,25.959v35.348c0,14.316,11.643,25.959,25.959,25.959h150.231
	C314.225,157.963,325.868,146.32,325.868,132.004z M317.031,43.633c0-4.573-3.712-8.285-8.285-8.285H132.004
	c-4.573,0-8.285,3.712-8.285,8.285s3.712,8.285,8.285,8.285h176.742C313.32,51.918,317.031,48.206,317.031,43.633z"/>
<g>
	<path style="fill:#C2E95D;" d="M309.299,414.792v35.348c0,5.181-4.209,9.389-9.389,9.389H149.679c-5.181,0-9.389-4.209-9.389-9.389
		v-35.348c0-5.181,4.209-9.389,9.389-9.389h150.231C305.09,405.402,309.299,409.611,309.299,414.792z M246.334,432.466
		c0-4.573-3.712-8.285-8.285-8.285h-70.697c-4.573,0-8.285,3.712-8.285,8.285s3.712,8.285,8.285,8.285h70.697
		C242.623,440.751,246.334,437.039,246.334,432.466z"/>
	<path style="fill:#C2E95D;" d="M309.299,308.746v35.348c0,5.181-4.209,9.389-9.389,9.389H149.679c-5.181,0-9.389-4.209-9.389-9.389
		v-35.348c0-5.181,4.209-9.389,9.389-9.389h150.231C305.09,299.357,309.299,303.566,309.299,308.746z M290.52,326.421
		c0-4.573-3.712-8.285-8.285-8.285H167.353c-4.573,0-8.285,3.712-8.285,8.285c0,4.573,3.712,8.285,8.285,8.285h114.882
		C286.808,334.705,290.52,330.994,290.52,326.421z"/>
	<path style="fill:#C2E95D;" d="M309.299,202.701v35.348c0,5.181-4.209,9.389-9.389,9.389H149.679c-5.181,0-9.389-4.209-9.389-9.389
		v-35.348c0-5.181,4.209-9.389,9.389-9.389h150.231C305.09,193.312,309.299,197.52,309.299,202.701z M246.334,220.375
		c0-4.573-3.712-8.285-8.285-8.285h-70.697c-4.573,0-8.285,3.712-8.285,8.285s3.712,8.285,8.285,8.285h70.697
		C242.623,228.66,246.334,224.949,246.334,220.375z"/>
	<path style="fill:#C2E95D;" d="M309.299,96.656v35.348c0,5.181-4.209,9.389-9.389,9.389H149.679c-5.181,0-9.389-4.209-9.389-9.389
		V96.656c0-5.181,4.209-9.389,9.389-9.389h150.231C305.09,87.266,309.299,91.475,309.299,96.656z M290.52,114.33
		c0-4.573-3.712-8.285-8.285-8.285H167.353c-4.573,0-8.285,3.712-8.285,8.285s3.712,8.285,8.285,8.285h114.882
		C286.808,122.615,290.52,118.903,290.52,114.33z"/>
</g>
<g>
	<path style="fill:#535757;" d="M423.077,43.633v424.181c0,24.059-19.574,43.633-43.633,43.633H132.004
		c-24.059,0-43.633-19.574-43.633-43.633V43.633C88.371,19.574,107.945,0,132.004,0h247.439
		C403.502,0,423.077,19.574,423.077,43.633z M406.507,467.814V43.633c0-14.924-12.14-27.064-27.064-27.064H132.004
		c-14.924,0-27.064,12.14-27.064,27.064v424.181c0,14.924,12.14,27.064,27.064,27.064h247.439
		C394.367,494.878,406.507,482.738,406.507,467.814z"/>
	<path style="fill:#535757;" d="M385.298,108.476c3.237,3.237,3.237,8.473,0,11.709l-26.511,26.511
		c-1.613,1.624-3.734,2.43-5.855,2.43c-2.121,0-4.242-0.806-5.855-2.43c-3.237-3.237-3.237-8.473,0-11.709l20.646-20.657
		l-20.646-20.657c-3.237-3.237-3.237-8.473,0-11.709c3.237-3.237,8.473-3.237,11.709,0L385.298,108.476z"/>
	<path style="fill:#535757;" d="M385.298,214.521c3.237,3.237,3.237,8.473,0,11.709l-26.511,26.511
		c-1.613,1.624-3.734,2.43-5.855,2.43c-2.121,0-4.242-0.806-5.855-2.43c-3.237-3.237-3.237-8.473,0-11.709l20.646-20.657
		l-20.646-20.657c-3.237-3.237-3.237-8.473,0-11.709c3.237-3.237,8.473-3.237,11.709,0L385.298,214.521z"/>
	<path style="fill:#535757;" d="M385.298,320.566c3.237,3.237,3.237,8.473,0,11.709l-26.511,26.511
		c-1.613,1.624-3.734,2.43-5.855,2.43c-2.121,0-4.242-0.806-5.855-2.43c-3.237-3.237-3.237-8.473,0-11.709l20.646-20.657
		l-20.646-20.657c-3.237-3.237-3.237-8.473,0-11.709c3.237-3.237,8.473-3.237,11.709,0L385.298,320.566z"/>
	<path style="fill:#535757;" d="M385.298,426.611c3.237,3.237,3.237,8.473,0,11.709l-26.511,26.511
		c-1.613,1.624-3.734,2.43-5.855,2.43c-2.121,0-4.242-0.806-5.855-2.43c-3.237-3.237-3.237-8.473,0-11.709l20.646-20.657
		l-20.646-20.657c-3.237-3.237-3.237-8.473,0-11.709c3.237-3.237,8.473-3.237,11.709,0L385.298,426.611z"/>
	<path style="fill:#535757;" d="M379.443,35.348c4.573,0,8.285,3.712,8.285,8.285s-3.712,8.285-8.285,8.285h-35.348
		c-4.573,0-8.285-3.712-8.285-8.285s3.712-8.285,8.285-8.285H379.443z"/>
	<path style="fill:#535757;" d="M325.868,414.792v35.348c0,14.316-11.643,25.959-25.959,25.959H149.679
		c-14.316,0-25.959-11.643-25.959-25.959v-35.348c0-14.316,11.643-25.959,25.959-25.959h150.231
		C314.225,388.833,325.868,400.476,325.868,414.792z M309.299,450.14v-35.348c0-5.181-4.209-9.389-9.389-9.389H149.679
		c-5.181,0-9.389,4.209-9.389,9.389v35.348c0,5.181,4.209,9.389,9.389,9.389h150.231C305.09,459.53,309.299,455.321,309.299,450.14z
		"/>
	<path style="fill:#535757;" d="M325.868,308.746v35.348c0,14.316-11.643,25.959-25.959,25.959H149.679
		c-14.316,0-25.959-11.643-25.959-25.959v-35.348c0-14.316,11.643-25.959,25.959-25.959h150.231
		C314.225,282.787,325.868,294.43,325.868,308.746z M309.299,344.095v-35.348c0-5.181-4.209-9.389-9.389-9.389H149.679
		c-5.181,0-9.389,4.209-9.389,9.389v35.348c0,5.181,4.209,9.389,9.389,9.389h150.231
		C305.09,353.484,309.299,349.276,309.299,344.095z"/>
	<path style="fill:#535757;" d="M325.868,202.701v35.348c0,14.316-11.643,25.959-25.959,25.959H149.679
		c-14.316,0-25.959-11.643-25.959-25.959v-35.348c0-14.316,11.643-25.959,25.959-25.959h150.231
		C314.225,176.742,325.868,188.385,325.868,202.701z M309.299,238.05v-35.348c0-5.181-4.209-9.389-9.389-9.389H149.679
		c-5.181,0-9.389,4.209-9.389,9.389v35.348c0,5.181,4.209,9.389,9.389,9.389h150.231C305.09,247.439,309.299,243.23,309.299,238.05z
		"/>
	<path style="fill:#535757;" d="M325.868,96.656v35.348c0,14.316-11.643,25.959-25.959,25.959H149.679
		c-14.316,0-25.959-11.643-25.959-25.959V96.656c0-14.316,11.643-25.959,25.959-25.959h150.231
		C314.225,70.697,325.868,82.34,325.868,96.656z M309.299,132.004V96.656c0-5.181-4.209-9.389-9.389-9.389H149.679
		c-5.181,0-9.389,4.209-9.389,9.389v35.348c0,5.181,4.209,9.389,9.389,9.389h150.231
		C305.09,141.394,309.299,137.185,309.299,132.004z"/>
	<path style="fill:#535757;" d="M308.746,35.348c4.573,0,8.285,3.712,8.285,8.285s-3.712,8.285-8.285,8.285H132.004
		c-4.573,0-8.285-3.712-8.285-8.285s3.712-8.285,8.285-8.285H308.746z"/>
	<path style="fill:#535757;" d="M282.235,106.045c4.573,0,8.285,3.712,8.285,8.285s-3.712,8.285-8.285,8.285H167.353
		c-4.573,0-8.285-3.712-8.285-8.285s3.712-8.285,8.285-8.285H282.235z"/>
	<path style="fill:#535757;" d="M282.235,318.136c4.573,0,8.285,3.712,8.285,8.285c0,4.573-3.712,8.285-8.285,8.285H167.353
		c-4.573,0-8.285-3.712-8.285-8.285c0-4.573,3.712-8.285,8.285-8.285H282.235z"/>
	<path style="fill:#535757;" d="M238.05,212.091c4.573,0,8.285,3.712,8.285,8.285s-3.712,8.285-8.285,8.285h-70.697
		c-4.573,0-8.285-3.712-8.285-8.285s3.712-8.285,8.285-8.285H238.05z"/>
	<path style="fill:#535757;" d="M238.05,424.181c4.573,0,8.285,3.712,8.285,8.285s-3.712,8.285-8.285,8.285h-70.697
		c-4.573,0-8.285-3.712-8.285-8.285s3.712-8.285,8.285-8.285H238.05z"/>
</g>
<g>
</g>
<g>
</g>
<g>
</g>
<g>
</g>
<g>
</g>
<g>
</g>
<g>
</g>
<g>
</g>
<g>
</g>
<g>
</g>
<g>
</g>
<g>
</g>
<g>
</g>
<g>
</g>
<g>
</g>
</svg>
