<?xml version="1.0" standalone="no"?>
<!DOCTYPE svg PUBLIC "-//W3C//DTD SVG 20010904//EN"
 "http://www.w3.org/TR/2001/REC-SVG-20010904/DTD/svg10.dtd">
<svg version="1.0" xmlns="http://www.w3.org/2000/svg"
 width="512.000000pt" height="512.000000pt" viewBox="0 0 512.000000 512.000000"
 preserveAspectRatio="xMidYMid meet">

<g transform="translate(0.000000,512.000000) scale(0.100000,-0.100000)"
fill="#000000" stroke="none">
<path d="M2465 5114 c-519 -37 -962 -290 -1264 -722 -65 -93 -171 -308 -205
-417 -159 -499 -87 -1000 209 -1450 39 -60 174 -272 300 -470 126 -198 303
-477 395 -620 92 -143 253 -396 358 -561 109 -172 204 -310 220 -320 37 -26
127 -26 164 0 27 18 122 164 896 1381 178 281 353 554 388 607 232 356 315
719 263 1148 -69 561 -471 1082 -1004 1301 -218 89 -505 138 -720 123z m278
-305 c174 -26 331 -79 472 -160 371 -213 611 -561 681 -989 19 -117 14 -359
-10 -469 -33 -152 -115 -355 -180 -446 -11 -16 -272 -424 -579 -905 -306 -481
-562 -875 -567 -875 -16 0 -1179 1831 -1226 1930 -50 106 -89 232 -110 365
-21 124 -13 367 15 491 125 549 557 959 1111 1054 94 16 299 18 393 4z"/>
<path d="M2490 4204 c-121 -21 -154 -30 -217 -55 -216 -90 -384 -287 -440
-517 -21 -88 -21 -256 0 -344 66 -272 283 -489 555 -555 88 -21 256 -21 344 0
272 66 489 283 555 555 21 88 21 256 0 344 -66 270 -286 492 -550 553 -67 15
-206 26 -247 19z m199 -313 c332 -103 431 -525 177 -759 -246 -227 -637 -122
-737 199 -105 336 224 665 560 560z"/>
</g>
</svg>
