<?xml version="1.0" standalone="no"?>
<!DOCTYPE svg PUBLIC "-//W3C//DTD SVG 20010904//EN"
 "http://www.w3.org/TR/2001/REC-SVG-20010904/DTD/svg10.dtd">
<svg version="1.0" xmlns="http://www.w3.org/2000/svg"
 width="512.000000pt" height="512.000000pt" viewBox="0 0 512.000000 512.000000"
 preserveAspectRatio="xMidYMid meet">

<g transform="translate(0.000000,512.000000) scale(0.100000,-0.100000)"
fill="#000000" stroke="none">
<path d="M2410 5114 c-81 -11 -235 -45 -307 -69 -102 -35 -255 -112 -351 -177
-103 -70 -305 -273 -371 -373 -103 -157 -179 -337 -218 -518 -25 -116 -25
-448 0 -564 45 -210 106 -343 286 -627 72 -115 130 -213 129 -218 -2 -5 -185
-111 -408 -237 l-405 -228 -382 -1004 c-210 -552 -382 -1014 -382 -1027 -1
-29 41 -72 70 -72 12 0 52 16 88 37 149 82 1098 617 1127 634 l31 19 611 -345
c337 -190 621 -345 632 -345 11 0 293 154 627 342 333 188 611 341 617 341 6
0 281 -152 611 -339 330 -186 612 -340 627 -342 33 -5 78 36 77 70 0 13 -172
475 -382 1027 l-382 1004 -405 229 c-223 125 -406 232 -408 236 -1 5 57 103
129 218 180 284 241 417 286 627 25 116 25 448 0 564 -38 178 -117 364 -218
518 -73 109 -270 305 -384 381 -159 106 -329 177 -510 215 -88 19 -356 33
-435 23z m402 -175 c192 -38 312 -93 398 -180 255 -259 400 -640 400 -1054 0
-229 -33 -420 -104 -602 -18 -48 -162 -349 -318 -668 -254 -517 -300 -605
-430 -810 -155 -247 -175 -268 -225 -243 -19 9 -169 239 -550 843 -288 457
-542 866 -563 911 -49 98 -83 196 -107 306 -25 116 -25 390 0 506 84 382 325
701 663 874 265 136 546 176 836 117z m-1292 -2847 c-33 -156 -60 -290 -60
-298 0 -25 47 -64 76 -64 59 0 67 20 130 320 32 154 61 280 64 280 3 0 145
-221 315 -492 171 -270 322 -509 338 -530 15 -21 43 -46 62 -55 l35 -17 0
-513 0 -514 -78 43 c-43 24 -285 160 -538 303 l-461 259 28 131 c119 555 123
574 109 600 -19 35 -64 48 -100 30 -16 -8 -32 -24 -35 -36 -4 -11 -40 -176
-80 -366 -43 -202 -79 -350 -87 -355 -47 -30 -1010 -569 -1012 -567 -2 2 146
396 328 875 l331 871 345 195 c190 107 346 192 348 188 1 -3 -25 -133 -58
-288z m2390 88 c168 -94 310 -177 317 -183 13 -14 665 -1727 661 -1737 -2 -5
-835 458 -1006 559 -7 4 -79 319 -177 782 -91 426 -165 778 -165 782 0 5 15 0
33 -11 17 -11 169 -97 337 -192z m-386 -458 c71 -334 143 -675 161 -758 l32
-151 -530 -299 c-292 -164 -534 -301 -539 -302 -4 -2 -8 228 -8 511 l0 515 30
12 c17 7 40 25 53 39 12 15 166 255 342 534 176 279 322 507 325 507 3 0 63
-273 134 -608z"/>
<path d="M2383 4504 c-324 -71 -580 -340 -638 -669 -19 -110 -19 -170 0 -280
70 -399 410 -685 815 -685 404 0 745 287 815 685 19 110 19 170 0 279 -57 329
-301 588 -627 666 -98 24 -269 26 -365 4z m372 -164 c171 -53 328 -185 403
-340 56 -113 72 -183 72 -305 0 -122 -16 -192 -72 -305 -32 -67 -58 -102 -122
-166 -142 -141 -280 -199 -476 -199 -196 0 -334 58 -476 199 -133 133 -194
281 -194 471 0 121 17 192 71 303 68 140 209 270 347 322 145 55 310 63 447
20z"/>
<path d="M2438 4204 c-174 -42 -326 -183 -378 -352 -27 -87 -27 -227 0 -314
53 -171 204 -311 382 -353 262 -62 539 96 618 353 27 87 27 227 0 314 -79 258
-359 416 -622 352z m207 -150 c115 -29 198 -97 249 -204 28 -58 31 -75 31
-155 0 -80 -3 -97 -31 -155 -73 -153 -239 -241 -396 -210 -125 24 -220 95
-274 206 -26 53 -29 69 -29 159 0 90 3 106 29 159 51 104 138 174 251 202 68
17 101 17 170 -2z"/>
</g>
</svg>
