<?xml version="1.0" encoding="iso-8859-1"?>
<!-- Generator: Adobe Illustrator 19.0.0, SVG Export Plug-In . SVG Version: 6.00 Build 0)  -->
<svg version="1.1" id="Layer_1" xmlns="http://www.w3.org/2000/svg" xmlns:xlink="http://www.w3.org/1999/xlink" x="0px" y="0px"
	 viewBox="0 0 512 512" style="enable-background:new 0 0 512 512;" xml:space="preserve">
<rect x="10.199" y="325.059" style="fill:#95DEED;" width="491.602" height="141.045"/>
<path style="fill:#FF9839;" d="M374.311,164.207C374.311,256.747,256,393.689,256,393.689S137.689,256.747,137.689,164.207
	c0-65.341,52.97-118.311,118.311-118.311S374.311,98.866,374.311,164.207z"/>
<circle style="fill:#FFD890;" cx="256" cy="165.227" r="67.315"/>
<g>
	<path style="fill:#4C1D1D;" d="M501.801,314.863H326.592c29.361-46.246,57.918-103.373,57.918-150.655
		c0-70.861-57.649-128.51-128.51-128.51s-128.51,57.649-128.51,128.51c0,47.282,28.557,104.409,57.918,150.655H10.199
		C4.567,314.863,0,319.429,0,325.062v141.042c0,5.633,4.567,10.199,10.199,10.199h491.602c5.632,0,10.199-4.566,10.199-10.199
		V325.062C512,319.429,507.433,314.863,501.801,314.863z M256,56.096c59.612,0,108.112,48.498,108.112,108.112
		c0,74.219-82.204,181.524-108.114,213.498c-25.916-31.968-108.11-139.225-108.11-213.498
		C147.888,104.594,196.388,56.096,256,56.096z M20.398,335.261h135.649v120.643H20.398V335.261z M491.602,455.904H176.446V335.261
		h22.403c24.937,36.537,47.324,62.656,49.432,65.096c1.937,2.243,4.755,3.531,7.718,3.531c2.963,0,5.781-1.289,7.718-3.531
		c2.109-2.441,24.495-28.56,49.432-65.096h22.405v57.408c0,5.633,4.567,10.199,10.199,10.199c5.632,0,10.199-4.566,10.199-10.199
		V335.26h135.649V455.904z"/>
	<path style="fill:#4C1D1D;" d="M345.753,415.108c-5.632,0-10.199,4.566-10.199,10.199v5.1c0,5.633,4.567,10.199,10.199,10.199
		c5.632,0,10.199-4.566,10.199-10.199v-5.1C355.952,419.674,351.385,415.108,345.753,415.108z"/>
	<path style="fill:#4C1D1D;" d="M333.514,165.227c0-42.742-34.773-77.514-77.514-77.514s-77.514,34.772-77.514,77.514
		s34.773,77.514,77.514,77.514S333.514,207.969,333.514,165.227z M198.884,165.227c0-31.493,25.621-57.116,57.116-57.116
		s57.116,25.622,57.116,57.116S287.494,222.343,256,222.343S198.884,196.72,198.884,165.227z"/>
</g>
<g>
</g>
<g>
</g>
<g>
</g>
<g>
</g>
<g>
</g>
<g>
</g>
<g>
</g>
<g>
</g>
<g>
</g>
<g>
</g>
<g>
</g>
<g>
</g>
<g>
</g>
<g>
</g>
<g>
</g>
</svg>
