<?xml version="1.0" standalone="no"?>
<!DOCTYPE svg PUBLIC "-//W3C//DTD SVG 20010904//EN"
 "http://www.w3.org/TR/2001/REC-SVG-20010904/DTD/svg10.dtd">
<svg version="1.0" xmlns="http://www.w3.org/2000/svg"
 width="274.000000pt" height="480.000000pt" viewBox="0 0 274.000000 480.000000"
 preserveAspectRatio="xMidYMid meet">

<g transform="translate(0.000000,480.000000) scale(0.100000,-0.100000)"
fill="#000000" stroke="none">
<path d="M1216 4790 c-164 -21 -300 -62 -451 -138 -515 -257 -806 -767 -755
-1322 29 -324 103 -514 390 -1005 312 -534 355 -618 493 -965 143 -360 224
-611 332 -1033 35 -137 70 -259 79 -271 19 -30 81 -41 113 -21 32 22 37 33 83
220 117 470 242 849 422 1275 81 190 145 311 386 725 319 547 392 730 423
1060 28 302 -47 598 -217 856 -158 239 -443 453 -734 552 -170 58 -410 86
-564 67z"/>
</g>
</svg>
