<?xml version="1.0" standalone="no"?>
<!DOCTYPE svg PUBLIC "-//W3C//DTD SVG 20010904//EN"
 "http://www.w3.org/TR/2001/REC-SVG-20010904/DTD/svg10.dtd">
<svg version="1.0" xmlns="http://www.w3.org/2000/svg"
 width="1500.000000pt" height="1500.000000pt" viewBox="0 0 1500.000000 1500.000000"
 preserveAspectRatio="xMidYMid meet">

<g transform="translate(0.000000,1500.000000) scale(0.100000,-0.100000)"
fill="#000000" stroke="none">
<path d="M7390 12259 c-200 -20 -477 -95 -678 -183 -404 -177 -756 -475 -1003
-850 -331 -502 -449 -1088 -343 -1711 99 -588 395 -1310 916 -2235 65 -116
100 -174 256 -425 58 -93 108 -172 112 -175 4 -3 13 -16 20 -30 16 -30 212
-324 307 -462 38 -53 86 -123 108 -155 74 -107 400 -548 494 -668 31 -38 56
-72 58 -74 6 -9 39 29 146 168 202 261 243 316 362 481 11 16 42 59 69 97 117
161 366 529 439 647 485 784 692 1162 909 1671 177 413 281 736 348 1075 40
208 44 255 45 515 0 229 -3 276 -24 390 -83 466 -280 862 -598 1204 -372 399
-873 652 -1421 716 -136 16 -383 18 -522 4z m586 -704 c308 -63 579 -205 803
-420 255 -246 408 -520 482 -865 19 -89 23 -137 23 -315 1 -212 -5 -269 -44
-420 -43 -163 -101 -301 -185 -440 -76 -124 -130 -191 -254 -316 -236 -235
-533 -389 -866 -450 -163 -30 -401 -30 -565 -1 -669 119 -1189 627 -1330 1297
-27 130 -37 376 -21 511 33 269 128 518 284 749 86 126 294 332 422 417 231
154 501 253 770 282 105 11 362 -4 481 -29z"/>
<path d="M13277 393 c-4 -3 -7 -17 -7 -30 0 -16 -6 -23 -20 -23 -11 0 -20 -7
-20 -15 0 -8 7 -15 15 -15 22 0 18 -21 -5 -27 -22 -6 -28 -33 -7 -33 9 0 12
-10 9 -30 -3 -22 0 -30 11 -30 10 0 17 11 19 27 4 39 28 42 28 4 0 -40 19 -40
27 -1 4 21 11 30 24 30 11 0 19 7 19 15 0 8 -7 15 -15 15 -8 0 -15 7 -15 15 0
8 9 15 20 15 11 0 20 7 20 15 0 8 -7 15 -15 15 -11 0 -13 8 -8 30 4 23 2 30
-9 30 -9 0 -18 -13 -21 -30 -4 -16 -12 -30 -18 -30 -7 0 -10 12 -7 30 4 28 -9
40 -25 23z m37 -98 c-4 -8 -12 -15 -20 -15 -8 0 -11 6 -8 15 4 8 12 15 20 15
8 0 11 -6 8 -15z"/>
<path d="M13423 384 c-40 -17 -46 -48 -8 -38 24 6 24 5 27 -72 3 -66 6 -79 21
-82 15 -3 17 7 17 102 0 115 0 115 -57 90z"/>
<path d="M13572 384 c-24 -17 -29 -53 -10 -72 9 -9 9 -15 0 -24 -20 -20 -14
-65 10 -82 29 -20 58 -20 87 0 19 13 22 22 17 48 -4 17 -7 40 -6 51 0 11 1 31
1 44 2 46 -55 66 -99 35z m66 -42 c4 -28 -24 -40 -45 -19 -14 13 -14 19 -3 32
18 22 44 15 48 -13z m2 -77 c10 -12 10 -18 0 -30 -27 -32 -71 -8 -56 30 3 8
14 15 24 15 11 0 25 -7 32 -15z"/>
<path d="M13743 384 c-40 -17 -46 -48 -8 -38 24 6 24 5 27 -72 3 -66 6 -79 21
-82 15 -3 17 7 17 102 0 115 0 115 -57 90z"/>
<path d="M13899 371 c-24 -25 -29 -37 -29 -81 0 -41 5 -56 25 -75 29 -30 58
-32 85 -5 43 43 15 120 -43 120 -33 0 -26 27 9 36 13 3 24 12 24 20 0 24 -40
15 -71 -15z m67 -96 c7 -27 -10 -55 -32 -55 -23 0 -40 46 -24 65 20 24 49 18
56 -10z"/>
<path d="M14052 384 c-19 -13 -22 -24 -22 -85 0 -76 19 -109 63 -109 49 0 62
22 62 105 0 64 -3 79 -19 91 -26 18 -56 18 -84 -2z m69 -41 c13 -35 2 -112
-17 -120 -26 -10 -44 17 -44 67 0 27 3 55 6 64 10 26 43 19 55 -11z"/>
<path d="M14180 385 c0 -11 12 -15 50 -15 28 0 50 -3 50 -6 0 -3 -16 -39 -35
-81 -40 -86 -42 -96 -19 -91 16 3 94 165 94 195 0 9 -19 13 -70 13 -56 0 -70
-3 -70 -15z"/>
<path d="M14372 384 c-24 -17 -29 -53 -10 -72 9 -9 9 -15 0 -24 -20 -20 -14
-65 10 -82 29 -20 58 -20 87 0 19 13 22 22 17 48 -4 17 -7 40 -6 51 0 11 1 31
1 44 2 46 -55 66 -99 35z m66 -42 c4 -28 -24 -40 -45 -19 -14 13 -14 19 -3 32
18 22 44 15 48 -13z m2 -77 c10 -12 10 -18 0 -30 -27 -32 -71 -8 -56 30 3 8
14 15 24 15 11 0 25 -7 32 -15z"/>
</g>
</svg>
