<?xml version="1.0" standalone="no"?>
<!DOCTYPE svg PUBLIC "-//W3C//DTD SVG 20010904//EN"
 "http://www.w3.org/TR/2001/REC-SVG-20010904/DTD/svg10.dtd">
<svg version="1.0" xmlns="http://www.w3.org/2000/svg"
 width="626.000000pt" height="424.000000pt" viewBox="0 0 626.000000 424.000000"
 preserveAspectRatio="xMidYMid meet">

<g transform="translate(0.000000,424.000000) scale(0.100000,-0.100000)"
fill="#000000" stroke="none">
<path d="M2825 3934 c-170 -23 -296 -59 -417 -120 -108 -55 -183 -108 -282
-204 -304 -293 -418 -728 -300 -1139 31 -106 109 -266 169 -346 371 -497 1050
-619 1562 -279 282 187 477 518 502 853 49 655 -442 1208 -1096 1235 -60 2
-121 3 -138 0z m360 -144 c231 -63 447 -220 581 -422 45 -68 119 -216 111
-224 -2 -2 -17 26 -33 63 -98 232 -316 436 -567 531 -136 51 -234 65 -407 59
-250 -9 -437 -81 -625 -243 -108 -92 -228 -264 -277 -397 -11 -31 -23 -56 -25
-53 -10 9 60 167 105 236 142 221 358 382 602 448 106 29 117 30 295 27 128
-2 176 -7 240 -25z m-145 -510 c-10 -135 -22 -287 -26 -338 -4 -51 -9 -90 -12
-88 -2 3 -15 61 -27 130 l-24 126 35 167 c18 93 38 179 43 193 5 14 12 34 15
44 4 10 8 17 10 15 2 -2 -4 -114 -14 -249z m-196 130 c10 -47 33 -152 51 -235
18 -82 43 -199 55 -260 21 -99 32 -127 115 -285 51 -96 95 -185 99 -197 4 -12
24 -30 44 -40 27 -13 44 -33 65 -72 31 -62 34 -103 11 -161 -19 -46 -11 -79
30 -133 47 -62 26 -79 -27 -22 -41 43 -69 53 -137 48 -43 -3 -62 0 -87 16 -44
27 -73 88 -73 151 0 65 18 108 64 147 l36 32 -77 158 c-74 149 -80 158 -113
167 -19 5 -37 11 -39 12 -2 2 -13 177 -25 388 -12 212 -18 382 -15 378 3 -4
14 -45 23 -92z m-918 -396 c-23 -108 -24 -112 -19 -59 4 53 23 138 29 132 2
-2 -3 -35 -10 -73z m1981 34 c-3 -8 -6 -5 -6 6 -1 11 2 17 5 13 3 -3 4 -12 1
-19z m10 -40 c-3 -8 -6 -5 -6 6 -1 11 2 17 5 13 3 -3 4 -12 1 -19z m22 -213
c0 -60 -3 -128 -7 -149 -4 -21 -7 46 -7 149 0 103 3 170 7 149 4 -21 7 -88 7
-149z m-2020 -195 c16 -67 11 -84 -5 -20 -8 30 -16 114 -18 185 l-5 130 9
-125 c5 -69 13 -145 19 -170z m949 89 l30 -10 -82 -136 -83 -136 43 -41 c23
-23 46 -55 50 -71 4 -17 16 -36 26 -43 24 -17 23 -49 -2 -62 -11 -6 -20 -15
-20 -21 0 -6 -7 -26 -16 -45 -22 -45 -70 -74 -126 -74 -164 0 -218 256 -71
338 33 18 51 40 84 100 75 137 120 212 128 212 4 0 22 -5 39 -11z m1049 -121
c-3 -7 -5 -2 -5 12 0 14 2 19 5 13 2 -7 2 -19 0 -25z m-10 -40 c-3 -8 -6 -5
-6 6 -1 11 2 17 5 13 3 -3 4 -12 1 -19z m-1905 -167 c146 -316 448 -530 805
-571 124 -15 257 -3 388 35 285 82 499 259 633 525 29 58 50 94 46 80 -11 -40
-74 -160 -114 -220 -137 -199 -358 -354 -596 -416 -81 -21 -123 -26 -234 -27
-76 -1 -161 4 -195 12 -306 64 -559 244 -709 504 -31 55 -86 184 -85 201 0 6
5 0 11 -14 6 -14 28 -63 50 -109z"/>
<path d="M2891 2802 c-12 -22 3 -42 30 -42 23 0 32 15 24 40 -8 25 -41 26 -54
2z"/>
<path d="M3088 2340 c-75 -58 -75 -171 -2 -229 32 -25 55 -26 100 -5 87 42
100 183 22 238 -31 22 -90 20 -120 -4z"/>
<path d="M2611 2334 c-64 -53 -62 -155 4 -213 65 -57 137 -34 171 54 14 39 15
52 5 87 -28 92 -115 127 -180 72z"/>
<path d="M1586 1525 c-15 -14 -29 -36 -32 -49 -5 -30 23 -64 56 -68 14 -2 28
-6 31 -11 8 -10 62 41 55 52 -4 5 0 12 6 15 10 5 10 7 1 12 -7 3 -10 11 -7 18
6 16 -24 43 -56 51 -20 5 -33 0 -54 -20z"/>
<path d="M3683 1538 c-19 -9 -43 -53 -43 -79 0 -15 63 -70 69 -60 4 5 18 11
31 13 42 6 51 17 48 60 -3 62 -51 92 -105 66z"/>
<path d="M1250 1520 c0 -5 -6 -7 -14 -4 -20 8 -91 -64 -105 -105 -6 -20 -11
-107 -11 -213 l0 -179 85 2 85 2 0 178 c0 154 2 178 15 173 13 -5 15 -35 15
-179 l0 -173 85 0 85 -1 0 170 c0 94 -5 189 -11 213 -11 46 -45 93 -69 98 -8
2 -21 9 -28 16 -16 14 -132 17 -132 2z"/>
<path d="M3994 1519 c-17 -5 -37 -16 -44 -24 -7 -8 -18 -15 -24 -15 -18 0 -58
-58 -50 -72 4 -6 3 -8 -3 -5 -17 11 -23 -46 -23 -219 l0 -163 81 1 80 0 -2 67
-2 66 27 -3 27 -4 -2 87 c-1 58 -5 83 -12 76 -6 -6 -14 -5 -24 5 -17 16 -14
48 5 50 6 1 16 2 22 3 5 0 9 37 9 81 0 88 0 88 -65 69z"/>
<path d="M1974 1505 c-3 -8 -4 -39 -2 -69 2 -35 0 -51 -7 -46 -16 13 -93 3
-124 -17 -42 -26 -93 -94 -88 -115 3 -10 1 -18 -4 -18 -18 0 -9 -67 16 -116
34 -68 85 -100 165 -103 38 -1 73 4 94 14 37 18 76 55 80 76 1 8 7 23 13 34 7
13 12 88 13 198 l1 177 -76 0 c-57 0 -77 -4 -81 -15z m-1 -269 c3 3 2 -10 -2
-27 -9 -44 -53 -59 -69 -24 -8 18 -8 26 3 35 8 7 12 16 10 20 -3 5 8 5 24 0
16 -4 32 -6 34 -4z"/>
<path d="M2621 1270 l-2 -250 81 0 80 0 0 249 -1 248 -79 2 -78 2 -1 -251z"/>
<path d="M3210 1271 l0 -249 86 -1 85 -2 -5 93 -5 93 24 -60 c12 -33 29 -75
36 -93 l14 -33 87 2 86 1 -11 27 c-6 14 -15 29 -20 32 -5 3 -8 9 -8 13 1 3 1
7 0 9 0 1 -2 9 -4 17 -2 8 -11 33 -21 55 -19 42 -26 71 -17 61 10 -10 54 58
49 77 -2 9 0 17 5 17 5 0 7 12 3 28 -3 15 -6 34 -6 44 1 29 -64 94 -106 106
-22 7 -92 12 -156 12 l-116 0 0 -249z m217 82 c13 -19 11 -22 -17 -31 -16 -6
-30 -10 -31 -9 -4 9 -6 53 -3 59 8 12 38 1 51 -19z"/>
<path d="M4962 1324 c2 -147 6 -198 16 -202 6 -2 10 -7 7 -12 -6 -10 75 -81
86 -75 4 3 10 1 14 -5 3 -5 24 -10 46 -10 l40 0 -3 81 c-2 68 -5 80 -19 76 -9
-2 -22 5 -29 17 -19 30 -18 30 15 31 l30 0 3 83 c3 82 2 83 -20 82 -41 -4 -43
-1 -43 62 l0 63 -73 3 -73 3 3 -197z"/>
<path d="M1601 1391 c-7 -5 -22 -6 -32 -4 -18 5 -19 -3 -19 -180 l0 -185 80
-1 80 -1 0 184 0 185 -50 -4 c-30 -2 -48 0 -45 6 8 11 4 11 -14 0z"/>
<path d="M2313 1392 c-13 -4 -32 -15 -43 -24 -11 -10 -20 -15 -20 -11 0 3 -9
-2 -20 -12 -11 -10 -20 -22 -20 -27 0 -5 -6 -16 -14 -24 -21 -21 -29 -94 -16
-143 11 -42 43 -82 90 -114 30 -21 146 -25 134 -4 -6 10 -4 10 7 0 8 -8 41
-13 82 -13 l68 0 -2 112 c-3 134 -6 151 -29 176 -11 11 -17 22 -14 24 2 3 -13
17 -33 31 -40 28 -128 43 -170 29z m85 -169 c5 -10 9 -49 9 -88 1 -65 0 -66
-6 -20 -5 42 -9 50 -27 51 -33 2 -44 13 -44 42 0 24 5 28 30 30 19 2 32 -4 38
-15z"/>
<path d="M3725 1390 c-4 -6 -23 -9 -43 -8 l-37 3 -1 -181 -1 -181 78 -2 78 -2
0 185 c0 168 -1 184 -17 181 -9 -1 -25 2 -34 6 -10 6 -19 5 -23 -1z"/>
<path d="M4235 1390 c-3 -5 -12 -7 -19 -4 -8 3 -26 -7 -41 -23 -15 -15 -24
-22 -20 -14 6 10 4 12 -4 7 -19 -12 -62 -86 -56 -96 3 -5 1 -11 -4 -14 -9 -6
-8 -24 2 -99 5 -33 34 -75 62 -91 11 -6 25 -16 32 -23 8 -7 60 -11 148 -11
l135 0 0 106 c0 116 -10 169 -37 196 -51 48 -77 67 -89 62 -7 -3 -16 -1 -19 4
-4 6 -24 10 -45 10 -21 0 -41 -4 -45 -10z m75 -194 c0 -31 -2 -32 -31 -28 -50
7 -56 57 -9 74 23 8 40 -11 40 -46z"/>
<path d="M4653 1393 c-13 -2 -23 -9 -23 -14 0 -6 -4 -8 -10 -4 -17 11 -88 -72
-100 -117 -22 -78 7 -161 70 -207 41 -30 42 -30 176 -30 l134 0 0 107 c0 114
-12 180 -36 189 -7 3 -12 8 -9 12 6 11 -49 49 -82 57 -41 9 -95 13 -120 7z
m82 -161 c6 -4 10 -14 10 -22 -1 -8 3 -21 8 -28 15 -19 4 -23 -39 -14 -25 5
-40 14 -42 25 -7 34 35 60 63 39z m20 -92 c3 -5 1 -10 -4 -10 -6 0 -11 5 -11
10 0 6 2 10 4 10 3 0 8 -4 11 -10z m5 -24 c0 -3 -4 -8 -10 -11 -5 -3 -10 -1
-10 4 0 6 5 11 10 11 6 0 10 -2 10 -4z m-4 -61 c1 -8 -2 -17 -7 -21 -5 -3 -9
7 -9 22 0 27 12 26 16 -1z"/>
<path d="M2536 554 c-10 -26 -7 -122 4 -129 6 -3 10 1 10 9 0 20 27 21 47 1
19 -19 31 -11 14 9 -10 12 -9 20 4 40 21 31 12 64 -22 77 -35 13 -50 11 -57
-7z m68 -26 c14 -23 -3 -52 -33 -56 -19 -3 -21 1 -21 38 0 37 2 41 21 38 12
-2 27 -11 33 -20z"/>
<path d="M3097 563 c-9 -8 -9 -133 -1 -133 4 0 12 7 19 16 11 15 14 14 34 -7
l22 -24 -6 26 c-4 16 -2 30 4 33 20 13 12 64 -11 80 -24 17 -50 21 -61 9z m67
-35 c14 -23 -3 -52 -33 -56 -19 -3 -21 1 -21 38 0 37 2 41 21 38 12 -2 27 -11
33 -20z"/>
<path d="M3285 560 c3 -5 12 -7 20 -3 12 4 15 -7 15 -61 0 -37 4 -66 10 -66 6
0 10 27 10 60 0 54 3 62 23 70 17 7 11 9 -31 9 -31 1 -51 -3 -47 -9z"/>
<path d="M3632 553 c-13 -24 1 -49 38 -68 17 -9 30 -22 30 -30 0 -20 -35 -28
-61 -15 -17 9 -20 9 -17 -1 6 -18 40 -28 66 -18 36 14 29 55 -13 80 -19 12
-35 27 -35 35 0 21 28 28 47 13 14 -12 16 -12 11 1 -7 23 -55 25 -66 3z"/>
<path d="M3828 560 c19 -8 22 -17 24 -77 l2 -68 5 70 c6 63 8 70 31 76 17 5 8
7 -30 7 -42 1 -50 -1 -32 -8z"/>
<path d="M4027 563 c-4 -3 -6 -38 -6 -77 1 -39 3 -63 6 -53 6 22 31 22 55 0
10 -9 18 -11 18 -5 0 6 -5 14 -10 17 -7 4 -5 14 5 28 20 29 19 53 -5 77 -20
20 -50 26 -63 13z m61 -44 c3 -29 -20 -54 -43 -45 -15 5 -21 57 -8 70 16 16
48 1 51 -25z"/>
<path d="M4210 565 c0 -3 11 -28 25 -55 14 -27 25 -60 26 -72 1 -18 3 -16 10
10 6 18 19 47 29 65 11 18 20 39 20 47 -1 8 -10 -2 -20 -22 -28 -53 -37 -54
-60 -8 -18 36 -30 49 -30 35z"/>
<path d="M1950 489 c0 -45 4 -68 10 -64 6 4 9 14 8 23 -2 14 5 17 37 17 32 0
40 -4 39 -17 -1 -10 2 -18 7 -18 5 0 8 30 8 68 -2 56 -3 60 -8 27 -6 -39 -7
-40 -46 -40 -40 0 -40 0 -38 38 2 20 -2 37 -7 37 -6 0 -10 -31 -10 -71z"/>
<path d="M2203 507 c-35 -81 -38 -94 -22 -79 17 15 81 16 97 0 7 -7 12 -9 12
-6 0 8 -58 138 -62 138 -2 0 -13 -24 -25 -53z m41 -9 c9 -35 8 -38 -18 -38
-23 0 -24 2 -15 30 13 36 24 38 33 8z"/>
<path d="M2400 495 c0 -37 4 -65 10 -65 6 0 10 28 10 65 0 37 -4 65 -10 65 -6
0 -10 -28 -10 -65z"/>
<path d="M2901 517 c-18 -42 -42 -124 -25 -89 3 6 22 12 43 12 20 0 43 -6 50
-12 11 -11 12 -8 6 12 -4 14 -18 48 -30 75 l-22 50 -22 -48z m37 -22 c16 -35
16 -35 -13 -35 -27 0 -28 3 -19 38 8 29 18 28 32 -3z"/>
<path d="M3490 495 c0 -37 4 -65 10 -65 6 0 10 28 10 65 0 37 -4 65 -10 65 -6
0 -10 -28 -10 -65z"/>
<path d="M1618 503 c23 -2 61 -2 85 0 23 2 4 4 -43 4 -47 0 -66 -2 -42 -4z"/>
<path d="M5698 503 c23 -2 59 -2 80 0 20 2 1 4 -43 4 -44 0 -61 -2 -37 -4z"/>
</g>
</svg>
